<svg xmlns="http://www.w3.org/2000/svg" viewBox="0 0 64 64" fill="none">
  <!-- Graduation cap base -->
  <path d="M32 12L4 26L32 40L60 26L32 12Z" fill="#4F46E5"/>
  <!-- Graduation cap top -->
  <path d="M32 40L12 30V42C12 46 20 52 32 52C44 52 52 46 52 42V30L32 40Z" fill="#4F46E5"/>
  <!-- Tassel -->
  <path d="M52 26V38" stroke="#4F46E5" stroke-width="2" stroke-linecap="round"/>
  <circle cx="52" cy="40" r="3" fill="#4F46E5"/>
  <!-- Spark/Star accent -->
  <path d="M48 8L50 14L56 16L50 18L48 24L46 18L40 16L46 14L48 8Z" fill="#22D3EE"/>
  <!-- Small sparkles -->
  <circle cx="42" cy="10" r="1.5" fill="#22D3EE"/>
  <circle cx="56" cy="12" r="1" fill="#22D3EE"/>
</svg>
